<svg xmlns="http://www.w3.org/2000/svg" xmlns:xlink="http://www.w3.org/1999/xlink" viewBox="0 0 572.86 451.98"><defs><style>.cls-1{fill:none;}.cls-2{isolation:isolate;}.cls-24,.cls-3{fill:#3f5d9c;}.cls-4{fill:#1c3156;}.cls-5{clip-path:url(#clip-path);}.cls-17,.cls-48,.cls-6{fill:#fff;}.cls-6{opacity:0.3;}.cls-7{fill:#322666;}.cls-8{fill:#3a307a;}.cls-9{fill:#7e9a69;}.cls-10{fill:#47475b;}.cls-11{fill:#5a7569;}.cls-12{fill:#465a8c;}.cls-13,.cls-23{fill:#332a77;}.cls-14,.cls-26{fill:#221f5e;}.cls-15{fill:#f2b47c;}.cls-16{fill:#d3925e;}.cls-18{fill:#797e7f;}.cls-19,.cls-22{fill:#0e1a2d;}.cls-20,.cls-30{fill:#d19237;}.cls-20,.cls-21,.cls-22,.cls-23,.cls-24,.cls-26,.cls-27,.cls-28,.cls-31{fill-rule:evenodd;}.cls-21,.cls-29{fill:#f6b854;}.cls-25{fill:#1e3660;}.cls-27{fill:#ffc673;}.cls-28{fill:#f8e1e5;}.cls-31{fill:#f59960;opacity:0.5;mix-blend-mode:multiply;}.cls-32{fill:#0d6852;}.cls-33{fill:#ee694b;}.cls-34{fill:#d64f38;}.cls-35{fill:#46c695;}.cls-36{fill:#122138;}.cls-37{fill:#09c5e7;}.cls-38{fill:#12223a;}.cls-39{fill:#335aa0;}.cls-40{fill:#0b1626;}.cls-41{fill:#cc523e;}.cls-42{fill:#f37271;}.cls-43{fill:#db5a5a;}.cls-44{fill:#dd4a4a;}.cls-45{fill:#d33939;}.cls-46{fill:#af2727;}.cls-47{fill:#ff9494;}.cls-48{font-size:14px;font-family:MyriadPro-BoldIt, Myriad Pro;font-weight:700;font-style:italic;}</style><clipPath id="clip-path" transform="translate(-11.21 -19.2)"><circle class="cls-1" cx="260.82" cy="265.01" r="178.24"/></clipPath></defs><title>Shipper 04 [Converti]</title><g class="cls-2"><g id="Layer_1" data-name="Layer 1"><circle class="cls-3" cx="249.61" cy="245.81" r="178.24"/><path class="cls-4" d="M273.46,38.42H194.31V68A28.35,28.35,0,0,0,222.67,96.3h65l14.18,14.18V66.77A28.35,28.35,0,0,0,273.46,38.42Z" transform="translate(-11.21 -19.2)"/><g class="cls-5"><path class="cls-6" d="M227.41,163.6a23.6,23.6,0,0,0-9.73,2c-.1-3.19-3.18-5.75-7-5.75-.26,0-.51,0-.75,0a16,16,0,0,0,.75-4.84,15,15,0,0,0-29.78-3.46,8,8,0,0,0-5.63-2.44,8.62,8.62,0,0,0-7.16,4.33,3.93,3.93,0,0,0-3.23-1.93,3.78,3.78,0,0,0-2.89,1.48c-2.78-5.24-7.54-8.7-13-8.7-8.57,0-15.51,8.66-15.51,19.34a24.09,24.09,0,0,0,.21,3.21,17.81,17.81,0,0,0-3.06-.26c-7.24,0-13.11,4.25-13.11,9.51s5.87,12.34,13.11,12.34a16.55,16.55,0,0,0,1.73,0H226c.48,0,1,0,1.45,0,9.84,0,17.81-5.57,17.81-12.46S237.25,163.6,227.41,163.6Z" transform="translate(-11.21 -19.2)"/><path class="cls-7" d="M446.73,311.42l-7.9.74c-31.53,2.19-43.21-14.22-54.89-39.38-8.18-16.4-12.85-65.64-32.7-71.11-22.19-7.66-46.72,58-59.56,71.11-37.37,36.1-38.54-21.88-72.41-19.69-29.2,2.18-35,53.6-58.39,67.82-33.87,19.69-52.55-20.78-64.23-43.76-5.12-8-12.48-22.75-21.63-35.27V448.34H446.73Z" transform="translate(-11.21 -19.2)"/><path class="cls-8" d="M446.73,259c-4.3-3.4-8.54-6.91-12.77-10.54-32.77-27.35-50.33-35-78.42,0-26.92,32.82-42.14,20.79-64.37-6.57-25.75-30.63-50.33,14.22-71.4,31.72-29.26,24.07-48,10.94-69.05-13.12-22.24-25.16-39.79-19.69-66.71,0-3,2.23-6,4.54-9,6.88V448.34H446.73Z" transform="translate(-11.21 -19.2)"/><path class="cls-9" d="M113.91,278.12c-3-.51-8.1-.51-10.12,2.53-4,5.57,4,9.11,3.54,14.17-.5,6.58-12.65,7.6-12.15,14.17.51,5.57,8.1,3.54,4.55,13.16-1.52,4.55-8.1,10.13-6.07,15.7,3.54,8.6,10.63,3,15.69,3,7.09,0,23.29,8.1,29.87-1.52,5.57-8.61-9.11-12.15-11.14-18.22-1-4.55,2.53-7.09,2-11.14-1-4.55-6.08-4.55-6.58-8.6s3.54-5.57,4.56-9.11c1-5.06-1.52-5.06-3.54-8.61-1.52-4,3-4.55-3.54-6.58-2-.51-5.06.5-6.07,1" transform="translate(-11.21 -19.2)"/><rect class="cls-10" x="103.61" y="265.5" width="1.38" height="84.54"/><path class="cls-10" d="M104.57,322.08c2.3,3.76,6.59,5.29,10.63,6.46a.85.85,0,0,0,.45-1.63c-3.58-1-7.56-2.32-9.62-5.68-.57-.93-2-.08-1.46.85Z" transform="translate(-11.21 -19.2)"/><path class="cls-10" d="M116.33,318.75a9.33,9.33,0,0,0,6.16-7.17c.2-1.06-1.43-1.52-1.63-.45a7.62,7.62,0,0,1-5,6c-1,.37-.58,2,.45,1.63Z" transform="translate(-11.21 -19.2)"/><path class="cls-10" d="M115.43,307.14c-3.28-.08-5.59-2-7.37-4.65-.61-.89-2.07,0-1.46.85,2.13,3.12,4.92,5.38,8.83,5.49a.85.85,0,0,0,0-1.69Z" transform="translate(-11.21 -19.2)"/><path class="cls-10" d="M116.44,293.64a6.54,6.54,0,0,0,6.3-4c.42-1-1-1.85-1.46-.85a4.9,4.9,0,0,1-4.84,3.13.84.84,0,0,0,0,1.69Z" transform="translate(-11.21 -19.2)"/><path class="cls-10" d="M116.1,337a14.49,14.49,0,0,0,10.72-4.8c.71-.81-.48-2-1.19-1.19a12.82,12.82,0,0,1-9.53,4.31.84.84,0,0,0,0,1.69Z" transform="translate(-11.21 -19.2)"/><path class="cls-9" d="M220.55,220.47c-4.69-.79-12.52-.79-15.65,3.91-6.26,8.6,6.26,14.09,5.48,21.91-.78,10.18-19.56,11.74-18.78,21.91.78,8.6,12.52,5.48,7,20.35-2.35,7-12.52,15.65-9.39,24.26,5.48,13.3,16.43,4.69,24.26,4.69,11,0,36,12.52,46.17-2.35,8.61-13.3-14.08-18.78-17.22-28.17-1.56-7,3.91-11,3.13-17.22-1.57-7-9.39-7-10.18-13.3s5.48-8.61,7-14.09c1.57-7.82-2.35-7.82-5.48-13.3-2.35-6.26,4.7-7-5.48-10.17-3.13-.78-7.83.78-9.39,1.57" transform="translate(-11.21 -19.2)"/><rect class="cls-10" x="210.76" y="211.44" width="2.13" height="130.68"/><path class="cls-10" d="M206.13,288.42c3.55,5.82,10.19,8.19,16.43,10a1.31,1.31,0,0,0,.69-2.52c-5.54-1.6-11.69-3.6-14.87-8.79-.88-1.43-3.13-.12-2.25,1.31Z" transform="translate(-11.21 -19.2)"/><path class="cls-10" d="M224.29,283.29a14.42,14.42,0,0,0,9.52-11.09c.31-1.65-2.21-2.34-2.52-.69a11.79,11.79,0,0,1-7.7,9.26c-1.57.56-.89,3.08.69,2.52Z" transform="translate(-11.21 -19.2)"/><path class="cls-10" d="M222.91,265.33c-5.08-.13-8.64-3.15-11.4-7.18-.94-1.38-3.21-.07-2.26,1.32,3.3,4.81,7.61,8.31,13.65,8.47,1.68,0,1.68-2.56,0-2.61Z" transform="translate(-11.21 -19.2)"/><path class="cls-10" d="M224.47,244.47c4.35-.07,8-2,9.73-6.13.65-1.53-1.6-2.86-2.25-1.31-1.39,3.27-4,4.77-7.48,4.83a1.31,1.31,0,0,0,0,2.61Z" transform="translate(-11.21 -19.2)"/><path class="cls-10" d="M223.95,311.5a22.41,22.41,0,0,0,16.57-7.42c1.1-1.26-.74-3.12-1.84-1.85a19.82,19.82,0,0,1-14.73,6.66,1.3,1.3,0,0,0,0,2.61Z" transform="translate(-11.21 -19.2)"/><path class="cls-9" d="M401.54,273.33c-2.69-.45-7.17-.45-9,2.24-3.58,4.92,3.58,8.06,3.14,12.54-.45,5.83-11.2,6.72-10.75,12.54.45,4.93,7.17,3.14,4,11.65-1.35,4-7.17,9-5.38,13.89,3.13,7.62,9.41,2.69,13.89,2.69,6.27,0,20.61,7.17,26.43-1.34,4.93-7.62-8.07-10.76-9.86-16.13-.9-4,2.24-6.27,1.79-9.86-.9-4-5.38-4-5.83-7.61s3.14-4.93,4-8.07c.89-4.48-1.34-4.48-3.13-7.62-1.35-3.58,2.69-4-3.14-5.82-1.79-.45-4.48.45-5.37.9" transform="translate(-11.21 -19.2)"/><rect class="cls-10" x="391.14" y="259.95" width="1.22" height="74.83"/><path class="cls-10" d="M393.29,312.24c2,3.32,5.83,4.69,9.41,5.72a.75.75,0,0,0,.4-1.44c-3.17-.92-6.7-2.06-8.51-5a.75.75,0,0,0-1.29.75Z" transform="translate(-11.21 -19.2)"/><path class="cls-10" d="M403.69,309.29a8.24,8.24,0,0,0,5.45-6.35c.17-.94-1.26-1.34-1.44-.39a6.76,6.76,0,0,1-4.41,5.3c-.9.32-.51,1.77.4,1.44Z" transform="translate(-11.21 -19.2)"/><path class="cls-10" d="M402.89,299c-2.91-.07-4.95-1.8-6.52-4.11-.54-.79-1.84,0-1.29.76,1.88,2.75,4.36,4.76,7.81,4.85a.75.75,0,0,0,0-1.5Z" transform="translate(-11.21 -19.2)"/><path class="cls-10" d="M403.79,287.07a5.78,5.78,0,0,0,5.57-3.5c.37-.88-.91-1.64-1.29-.75a4.33,4.33,0,0,1-4.28,2.77.75.75,0,0,0,0,1.49Z" transform="translate(-11.21 -19.2)"/><path class="cls-10" d="M403.49,325.45A12.84,12.84,0,0,0,413,321.2c.63-.73-.42-1.79-1.05-1.06a11.35,11.35,0,0,1-8.43,3.81.75.75,0,0,0,0,1.49Z" transform="translate(-11.21 -19.2)"/><path class="cls-9" d="M359.39,283.51c-2.18-.36-5.8-.36-7.26,1.82-2.9,4,2.9,6.53,2.54,10.15-.36,4.72-9.07,5.44-8.71,10.16.37,4,5.8,2.54,3.27,9.44-1.09,3.27-5.8,7.25-4.35,11.25,2.54,6.17,7.62,2.17,11.25,2.17,5.08,0,16.69,5.81,21.4-1.09,4-6.16-6.53-8.7-8-13.06-.73-3.26,1.81-5.08,1.45-8-.73-3.27-4.35-3.27-4.71-6.17s2.54-4,3.26-6.53c.72-3.63-1.09-3.63-2.54-6.17-1.09-2.9,2.17-3.26-2.54-4.71a7.84,7.84,0,0,0-4.35.72" transform="translate(-11.21 -19.2)"/><rect class="cls-10" x="348.83" y="269.03" width="0.99" height="60.58"/><path class="cls-10" d="M352.7,315c1.65,2.7,4.72,3.8,7.61,4.63a.61.61,0,0,0,.32-1.17c-2.57-.74-5.42-1.66-6.89-4.07-.41-.67-1.45-.06-1,.61Z" transform="translate(-11.21 -19.2)"/><path class="cls-10" d="M361.13,312.64a6.67,6.67,0,0,0,4.41-5.14c.15-.76-1-1.09-1.17-.32a5.48,5.48,0,0,1-3.57,4.29c-.73.26-.41,1.43.33,1.16Z" transform="translate(-11.21 -19.2)"/><path class="cls-10" d="M360.48,304.31c-2.35-.06-4-1.46-5.28-3.32-.44-.64-1.49,0-1,.61,1.53,2.23,3.53,3.85,6.33,3.93a.61.61,0,0,0,0-1.21Z" transform="translate(-11.21 -19.2)"/><path class="cls-10" d="M361.2,294.64a4.7,4.7,0,0,0,4.51-2.84c.3-.71-.74-1.32-1-.61a3.51,3.51,0,0,1-3.47,2.24.61.61,0,0,0,0,1.21Z" transform="translate(-11.21 -19.2)"/><path class="cls-10" d="M361,325.72a10.38,10.38,0,0,0,7.68-3.44c.51-.58-.34-1.44-.85-.85a9.22,9.22,0,0,1-6.83,3.09.6.6,0,0,0,0,1.2Z" transform="translate(-11.21 -19.2)"/><path class="cls-9" d="M76.84,330.16c-1-4.56,2.53-7.08,2-11.13-.55-2.49-2.3-3.62-3.87-4.79V353c5.13.48,10-.25,13-4.57C93.55,339.78,78.87,336.23,76.84,330.16Z" transform="translate(-11.21 -19.2)"/><path class="cls-9" d="M75,295v9.46a8.85,8.85,0,0,0,1.84-3.15C77.58,297.64,76.45,296.63,75,295Z" transform="translate(-11.21 -19.2)"/><path class="cls-11" d="M446.73,257.79a3,3,0,0,0-.47.17l-1.12.38c-3.75-.38-7.49,0-9.37,3.37-2.25,4.87,3,8.24.38,12.74s-9,3.37-9.37,9c-.75,6.37,5.25,4.5,3.37,10.12-1.5,4.49-7.12,6-6,12.37.75,4.5,4.5,7.12,9,7.49,2.25.38,4.12-1.5,6.37-.75s3,3.38,5.25,4.5a12.8,12.8,0,0,0,2,.9Z" transform="translate(-11.21 -19.2)"/><path class="cls-10" d="M446.73,288.32c-3.08-1.61-6.44-3.91-7.38-7.32a.63.63,0,0,0-1.21.33c1.1,4,5.06,6.61,8.59,8.39Z" transform="translate(-11.21 -19.2)"/><path class="cls-10" d="M446.73,308.17a16.22,16.22,0,0,1-6-4c-.57-.57-1.46.32-.88.88a17,17,0,0,0,6.93,4.39Z" transform="translate(-11.21 -19.2)"/><path class="cls-11" d="M350.56,280c-3.37-1.88-9-1.5-6.75-7.87,1.13-3.38,9-6.37,3.75-10.87-3.37-2.62-7.49,1.88-8.62-3.37-.75-3.75,4.12-5.62,1.87-9.74-1.5-3.75-9.37-6.75-12.37-5.25l-1.12.38c-3.75-.38-7.49,0-9.37,3.37-2.25,4.87,3,8.24.38,12.74s-9,3.37-9.37,9c-.75,6.37,5.25,4.5,3.37,10.12-1.5,4.5-7.12,6-6,12.36.75,4.5,4.5,7.12,9,7.49,2.25.38,4.12-1.5,6.37-.75s3,3.37,5.25,4.5c5.25,3,12.37,1.87,17.61,0C353.56,298.76,360.68,286.39,350.56,280Z" transform="translate(-11.21 -19.2)"/><rect class="cls-10" x="318.04" y="232.72" width="1.41" height="91.81"/><path class="cls-10" d="M320.33,266.29c1.15,4.15,5.39,6.84,9,8.62.72.35,1.35-.73.63-1.08-3.33-1.62-7.41-4.06-8.46-7.87a.63.63,0,0,0-1.21.33Z" transform="translate(-11.21 -19.2)"/><path class="cls-10" d="M330,282c3.56.56,7.33-2,10.47-3.31.74-.31.1-1.39-.63-1.08-1.63.69-3.22,1.47-4.86,2.15-1.41.57-3.11,1.29-4.66,1-.78-.12-1.12,1.08-.33,1.21Z" transform="translate(-11.21 -19.2)"/><path class="cls-10" d="M330.1,293.5a14.86,14.86,0,0,1-7.22-4.33c-.57-.57-1.46.32-.88.88a16.13,16.13,0,0,0,7.77,4.66c.78.16,1.12-1,.33-1.21Z" transform="translate(-11.21 -19.2)"/><path class="cls-10" d="M329.93,267.5c2.54.19,5.93-.77,7-3.31.32-.73-.76-1.37-1.08-.63-.94,2.15-3.82,2.85-6,2.69-.8-.06-.8,1.19,0,1.25Z" transform="translate(-11.21 -19.2)"/><path class="cls-10" d="M330.25,261.34a19.45,19.45,0,0,1-3.37-2.91.63.63,0,0,0-.88.88,20.73,20.73,0,0,0,3.62,3.09c.69.43,1.32-.65.63-1.07Z" transform="translate(-11.21 -19.2)"/><path class="cls-10" d="M330.34,298.71c4.25-1.07,9.28-2.46,12.27-5.91.53-.6-.35-1.49-.88-.88-2.85,3.28-7.66,4.56-11.72,5.59a.62.62,0,0,0,.33,1.2Z" transform="translate(-11.21 -19.2)"/><path class="cls-11" d="M173.39,296.1c-2.78-1.55-7.42-1.24-5.57-6.5.93-2.78,7.42-5.25,3.09-9-2.78-2.16-6.18,1.55-7.12-2.78-.62-3.1,3.4-4.64,1.55-8-1.24-3.09-7.73-5.57-10.21-4.33l-.93.31c-3.09-.31-6.19,0-7.73,2.79-1.86,4,2.47,6.8.31,10.51s-7.42,2.79-7.73,7.43c-.62,5.26,4.33,3.71,2.78,8.35-1.24,3.71-5.88,4.95-5,10.2.62,3.71,3.71,5.88,7.42,6.19,1.86.31,3.4-1.23,5.26-.62s2.48,2.79,4.33,3.71c4.33,2.48,10.21,1.55,14.53,0C175.87,311.56,181.75,301.36,173.39,296.1Z" transform="translate(-11.21 -19.2)"/><rect class="cls-10" x="144.59" y="253.7" width="1.16" height="75.78"/><path class="cls-10" d="M148.44,284.76c.95,3.43,4.45,5.65,7.46,7.11.59.29,1.12-.6.52-.89-2.75-1.35-6.11-3.35-7-6.5a.52.52,0,0,0-1,.27Z" transform="translate(-11.21 -19.2)"/><path class="cls-10" d="M156.43,297.7c2.94.46,6-1.63,8.64-2.73.61-.26.09-1.15-.52-.89-1.35.57-2.66,1.22-4,1.77a7.64,7.64,0,0,1-3.84.85c-.65-.1-.93.9-.27,1Z" transform="translate(-11.21 -19.2)"/><path class="cls-10" d="M156.5,307.23a12.39,12.39,0,0,1-6-3.59c-.47-.46-1.2.26-.73.73a13.34,13.34,0,0,0,6.42,3.85c.65.13.93-.86.27-1Z" transform="translate(-11.21 -19.2)"/><path class="cls-10" d="M156.36,285.76c2.09.15,4.89-.64,5.81-2.73.26-.6-.62-1.13-.89-.52-.77,1.78-3.16,2.35-4.92,2.22-.67-.05-.66,1,0,1Z" transform="translate(-11.21 -19.2)"/><path class="cls-10" d="M156.62,280.68a16.12,16.12,0,0,1-2.78-2.4c-.47-.47-1.2.26-.73.73a17.09,17.09,0,0,0,3,2.56c.57.35,1.08-.54.52-.89Z" transform="translate(-11.21 -19.2)"/><path class="cls-10" d="M156.71,311.52c3.51-.88,7.66-2,10.13-4.87.43-.5-.29-1.23-.73-.73-2.35,2.71-6.32,3.76-9.67,4.61a.52.52,0,0,0,.27,1Z" transform="translate(-11.21 -19.2)"/><path class="cls-11" d="M293.83,296.1c-2.78-1.55-7.42-1.24-5.57-6.5.92-2.78,7.42-5.25,3.09-9-2.78-2.16-6.18,1.55-7.11-2.78-.62-3.1,3.4-4.64,1.55-8-1.24-3.09-7.73-5.57-10.21-4.33l-.93.31c-3.09-.31-6.19,0-7.73,2.79-1.85,4,2.48,6.8.31,10.51s-7.42,2.79-7.73,7.43c-.62,5.26,4.33,3.71,2.78,8.35-1.24,3.71-5.88,4.95-5,10.2.62,3.71,3.71,5.88,7.42,6.19,1.86.31,3.4-1.23,5.26-.62s2.48,2.79,4.33,3.71c4.33,2.48,10.21,1.55,14.54,0C296.3,311.56,302.18,301.36,293.83,296.1Z" transform="translate(-11.21 -19.2)"/><rect class="cls-10" x="265.03" y="253.7" width="1.16" height="75.78"/><path class="cls-10" d="M268.88,284.76c.95,3.43,4.45,5.65,7.46,7.11.59.29,1.12-.6.52-.89-2.75-1.35-6.11-3.35-7-6.5a.52.52,0,0,0-1,.27Z" transform="translate(-11.21 -19.2)"/><path class="cls-10" d="M276.87,297.7c2.94.46,6-1.63,8.64-2.73.61-.26.08-1.15-.52-.89-1.35.57-2.66,1.22-4,1.77a7.64,7.64,0,0,1-3.84.85c-.65-.1-.93.9-.27,1Z" transform="translate(-11.21 -19.2)"/><path class="cls-10" d="M276.94,307.23a12.36,12.36,0,0,1-6-3.59c-.48-.46-1.2.26-.73.73a13.31,13.31,0,0,0,6.41,3.85c.65.13.92-.86.27-1Z" transform="translate(-11.21 -19.2)"/><path class="cls-10" d="M276.8,285.76c2.09.15,4.89-.64,5.81-2.73.26-.6-.62-1.13-.89-.52-.77,1.78-3.15,2.35-4.92,2.22-.66-.05-.66,1,0,1Z" transform="translate(-11.21 -19.2)"/><path class="cls-10" d="M277.06,280.68a16.25,16.25,0,0,1-2.78-2.4c-.47-.47-1.2.26-.73.73a17.13,17.13,0,0,0,3,2.56c.57.35,1.08-.54.52-.89Z" transform="translate(-11.21 -19.2)"/><path class="cls-10" d="M277.14,311.52c3.51-.88,7.66-2,10.12-4.87.44-.5-.29-1.23-.73-.73-2.36,2.71-6.32,3.76-9.67,4.61a.52.52,0,0,0,.27,1Z" transform="translate(-11.21 -19.2)"/><path class="cls-12" d="M446.73,339a945.94,945.94,0,0,0-121.42-7.68C231.6,331.37,145.05,344.59,75,367v81.39H446.73Z" transform="translate(-11.21 -19.2)"/></g><polygon class="cls-13" points="215.26 427.24 205.68 427.24 177.51 411.79 180.07 407.11 207.05 421.9 215.26 421.9 215.26 427.24"/><path class="cls-14" d="M147.66,416.2a10.23,10.23,0,0,0,9,15.12h48.92a10.23,10.23,0,0,0,9-15.12Z" transform="translate(-11.21 -19.2)"/><rect class="cls-15" y="210.2" width="115.64" height="103.18"/><rect class="cls-16" x="80.06" y="210.2" width="35.58" height="103.18"/><rect class="cls-17" x="2.37" y="216.12" width="52.18" height="23.72"/><path class="cls-18" d="M83.26,303.23A1.78,1.78,0,0,1,81.48,305H53a1.78,1.78,0,0,1-1.78-1.78h0A1.78,1.78,0,0,1,53,301.45H81.48a1.78,1.78,0,0,1,1.78,1.78Z" transform="translate(-11.21 -19.2)"/><path class="cls-18" d="M83.26,308.56a1.78,1.78,0,0,1-1.78,1.78H53a1.78,1.78,0,0,1-1.78-1.78h0A1.78,1.78,0,0,1,53,306.79H81.48a1.78,1.78,0,0,1,1.78,1.78Z" transform="translate(-11.21 -19.2)"/><path class="cls-18" d="M83.26,313.9a1.78,1.78,0,0,1-1.78,1.78H53a1.78,1.78,0,0,1-1.78-1.78h0A1.78,1.78,0,0,1,53,312.12H81.48a1.78,1.78,0,0,1,1.78,1.78Z" transform="translate(-11.21 -19.2)"/><path class="cls-18" d="M83.26,319.24A1.78,1.78,0,0,1,81.48,321H53a1.78,1.78,0,0,1-1.78-1.78h0A1.78,1.78,0,0,1,53,317.46H81.48a1.78,1.78,0,0,1,1.78,1.78Z" transform="translate(-11.21 -19.2)"/><rect class="cls-19" x="15.42" y="309.83" width="91.33" height="7.12"/><path class="cls-20" d="M287.92,267.32l-48.29,2.76a3.77,3.77,0,1,0,.43,7.48l47.86-2.74Z" transform="translate(-11.21 -19.2)"/><path class="cls-19" d="M253.41,271.56s.47-.33,1.29-.81a30.42,30.42,0,0,1,3.44-1.66c.72-.3,1.5-.58,2.32-.87s1.7-.54,2.61-.78,1.84-.46,2.8-.66,1.93-.37,2.91-.5a34,34,0,0,1,5.77-.41,24.26,24.26,0,0,1,2.69.23,23.77,23.77,0,0,1,2.44.51,18.08,18.08,0,0,1,3.71,1.41,10.85,10.85,0,0,1,1.05.59,4.08,4.08,0,0,1,.38.24,4.39,4.39,0,0,1,.74,6.17l-.19.23a4.39,4.39,0,0,1-.33.3,10.56,10.56,0,0,1-.94.76,18.61,18.61,0,0,1-3.41,2,22.5,22.5,0,0,1-4.93,1.61,33.62,33.62,0,0,1-5.76.58c-1,0-2,0-2.95,0s-1.94-.07-2.87-.17-1.84-.2-2.7-.33-1.68-.29-2.44-.46a30.51,30.51,0,0,1-3.67-1c-.89-.33-1.41-.58-1.41-.58a3.71,3.71,0,0,1-1.78-4.93A3.74,3.74,0,0,1,253.41,271.56Z" transform="translate(-11.21 -19.2)"/><path class="cls-21" d="M102.83,399.4s-6.42-42.26,25.68-53.49h77.57s-10.7,5.34-11.77,13.37v35.31s2.67,17.12,22.47,17.12c0,0,19.79.53,19.79-18.19v-92s-1.07-13.91,24.61-13.91h31.57s16.58,2.14,16.58,18.72V371l-1.6,16-31,28.89H107.11Z" transform="translate(-11.21 -19.2)"/><path class="cls-20" d="M292.2,368.91a4.28,4.28,0,0,1-4.28,4.28h0a4.29,4.29,0,0,1-4.28-4.28v-77a4.28,4.28,0,0,1,4.28-4.28h0a4.28,4.28,0,0,1,4.28,4.28Z" transform="translate(-11.21 -19.2)"/><path class="cls-22" d="M342,422.4c0,20.68-14.93,37.45-33.34,37.45s-33.34-16.77-33.34-37.45S290.2,384.5,308.61,385C330.19,385.49,342,401.72,342,422.4Z" transform="translate(-11.21 -19.2)"/><path class="cls-23" d="M322.15,420.18c.41,12.7-7.81,23.27-18.35,23.61s-19.42-9.68-19.83-22.37,7.8-23.55,18.35-23.61C314.68,397.73,321.74,407.48,322.15,420.18Z" transform="translate(-11.21 -19.2)"/><path class="cls-23" d="M318.59,420.79c0,9.76-6.76,17.65-15.1,17.65s-15.09-7.9-15.09-17.65,6.76-17.87,15.09-17.66C313.26,403.39,318.59,411,318.59,420.79Z" transform="translate(-11.21 -19.2)"/><path class="cls-24" d="M304.45,421.15c0-6.51,3-12.27,7.49-15.33a15,15,0,0,0-8.45-2.68c-8.33-.21-15.09,7.91-15.09,17.66s6.76,17.65,15.09,17.65a13.39,13.39,0,0,0,7.78-2.54A18.54,18.54,0,0,1,304.45,421.15Z" transform="translate(-11.21 -19.2)"/><path class="cls-22" d="M308.78,411.53a6.28,6.28,0,0,0-2.06.36l-1.68-.36.07,1.16a10,10,0,0,0-4,8.29c0,4,2.06,7.48,5,8.83l0,.61.81-.29a6.42,6.42,0,0,0,1.86.29c4.24,0,7.67-4.23,7.67-9.45S313,411.53,308.78,411.53Z" transform="translate(-11.21 -19.2)"/><ellipse class="cls-25" cx="292.22" cy="401.78" rx="7.67" ry="9.45"/><ellipse class="cls-17" cx="292.22" cy="401.78" rx="3.91" ry="4.81"/><path class="cls-22" d="M151.51,422.4c0,20.68-14.93,37.45-33.34,37.45S84.82,443.08,84.82,422.4,99.76,384.5,118.16,385C139.74,385.49,151.51,401.72,151.51,422.4Z" transform="translate(-11.21 -19.2)"/><path class="cls-23" d="M131.71,420.18c.41,12.7-7.8,23.27-18.35,23.61s-19.42-9.68-19.83-22.37,7.8-23.55,18.35-23.61C124.24,397.73,131.29,407.48,131.71,420.18Z" transform="translate(-11.21 -19.2)"/><path class="cls-23" d="M128.15,420.79c0,9.76-6.76,17.65-15.1,17.65S98,430.55,98,420.79s6.76-17.87,15.09-17.66C122.82,403.39,128.15,411,128.15,420.79Z" transform="translate(-11.21 -19.2)"/><path class="cls-24" d="M114,421.15c0-6.51,3-12.27,7.49-15.33a15,15,0,0,0-8.45-2.68C104.72,402.93,98,411,98,420.79s6.76,17.65,15.09,17.65a13.39,13.39,0,0,0,7.77-2.54A18.55,18.55,0,0,1,114,421.15Z" transform="translate(-11.21 -19.2)"/><path class="cls-22" d="M118.34,411.53a6.26,6.26,0,0,0-2.06.36l-1.69-.36.07,1.16a10,10,0,0,0-4,8.29c0,4,2.06,7.48,5,8.83l0,.61.81-.29a6.44,6.44,0,0,0,1.86.29c4.23,0,7.66-4.23,7.66-9.45S122.58,411.53,118.34,411.53Z" transform="translate(-11.21 -19.2)"/><ellipse class="cls-25" cx="101.78" cy="401.78" rx="7.67" ry="9.45"/><ellipse class="cls-17" cx="101.78" cy="401.78" rx="3.91" ry="4.81"/><path class="cls-26" d="M130.84,412a9.49,9.49,0,0,1-9.49,9.49h-51A9.49,9.49,0,0,1,60.87,412h0a9.49,9.49,0,0,1,9.49-9.49h51a9.49,9.49,0,0,1,9.49,9.49Z" transform="translate(-11.21 -19.2)"/><path class="cls-27" d="M306.14,357.12c-25.7.45-46.21,19-45.53,58,0,0,15.58,3.47,15.34-9.9,0,0-.2-11.23,10-11.41l64.19-1.13-.07-4.28C346.54,373,331.84,356.66,306.14,357.12Z" transform="translate(-11.21 -19.2)"/><path class="cls-20" d="M313.64,357.49a55,55,0,0,0-7.51-.37c-25.7.45-46.21,19-45.53,58,0,0,8.49,1.88,12.84-2.5C273.66,378,291,360.22,313.64,357.49Z" transform="translate(-11.21 -19.2)"/><path class="cls-20" d="M187.89,408h15.25a21.61,21.61,0,0,1-8.83-13.37V359.28c1.07-8,11.77-13.37,11.77-13.37H182.79c-4.12,3.61-10.42,10.78-10.42,20.86v25.68S174,408,187.89,408Z" transform="translate(-11.21 -19.2)"/><path class="cls-28" d="M267.68,318.62A8.66,8.66,0,1,1,259,309.5,8.9,8.9,0,0,1,267.68,318.62Z" transform="translate(-11.21 -19.2)"/><path class="cls-21" d="M172.11,413.84a36.63,36.63,0,0,0,4-16.58c0-23.94-11.2-47.36-51.17-40.12-35.46,6.42-54.21,16.19-54.21,40.13a36.64,36.64,0,0,0,4,16.58Z" transform="translate(-11.21 -19.2)"/><path class="cls-27" d="M130.27,356.35c22.76,3.35,29.8,22,29.8,40.91a36.67,36.67,0,0,1-4,16.58h16a36.63,36.63,0,0,0,4-16.58C176.12,374.43,165.91,352.09,130.27,356.35Z" transform="translate(-11.21 -19.2)"/><path class="cls-23" d="M172.37,414.11a2.94,2.94,0,0,1-2.94,2.94H75.28a2.94,2.94,0,0,1-2.94-2.94h0a3,3,0,0,1,2.94-2.95h94.15a2.94,2.94,0,0,1,2.94,2.95Z" transform="translate(-11.21 -19.2)"/><path class="cls-13" d="M265.08,419.78c-.37,0-.68,0-.91,0H164.88a3.21,3.21,0,0,1,0-6.42h99.8l.29.05a3.09,3.09,0,0,0,2.2-.82c1.65-1.45,2.55-4.79,2.55-9.4V403c.25-4.38,3.13-12.66,12.3-12.66h66.87a3.21,3.21,0,1,1,0,6.42H282c-5.07,0-5.79,5.26-5.89,6.53,0,6.77-1.68,11.58-5,14.29A9.53,9.53,0,0,1,265.08,419.78Z" transform="translate(-11.21 -19.2)"/><path class="cls-29" d="M268.73,277.13c0,11.33,10.75,20.51,24,20.51s10.41-8.12,10.41-19.46,2.85-21.57-10.41-21.57S268.73,265.8,268.73,277.13Z" transform="translate(-11.21 -19.2)"/><ellipse class="cls-30" cx="283.23" cy="257.93" rx="13.14" ry="20.51"/><ellipse class="cls-17" cx="285.39" cy="257.85" rx="10.99" ry="17.09"/><path class="cls-26" d="M217.31,335.74c0,6.37-4.66,11.53-10.4,11.53H96c-5.74,0-10.4-5.16-10.4-11.53h0c0-6.37,4.65-11.54,10.4-11.54H206.91c5.74,0,10.4,5.17,10.4,11.54Z" transform="translate(-11.21 -19.2)"/><path class="cls-23" d="M191.22,335.74c0,6.37-4.66,11.53-10.4,11.53H96c-5.74,0-10.4-5.16-10.4-11.53h0c0-6.37,4.65-11.54,10.4-11.54h84.83c5.74,0,10.4,5.17,10.4,11.54Z" transform="translate(-11.21 -19.2)"/><path class="cls-31" d="M213.46,340.26H102.54c-5.74,0-10.4-5.16-10.4-11.54a12.6,12.6,0,0,1,.64-3.95,11.47,11.47,0,0,0-7.19,11c0,6.37,4.65,11.53,10.4,11.53H206.91a10.51,10.51,0,0,0,9.76-7.58A9.44,9.44,0,0,1,213.46,340.26Z" transform="translate(-11.21 -19.2)"/><path class="cls-22" d="M244.05,273.69a6.42,6.42,0,0,1-6.42,6.42h-16a6.42,6.42,0,0,1-6.42-6.42h0a6.42,6.42,0,0,1,6.42-6.42h16a6.42,6.42,0,0,1,6.42,6.42Z" transform="translate(-11.21 -19.2)"/><rect class="cls-14" x="42.25" y="390.33" width="14.23" height="5.34"/><path class="cls-4" d="M406.72,96.63s3.87-.37,6.46-8.11a4.82,4.82,0,0,0-3.51-.74s5-2,3.32-10.88c0,0-1.47-.37-3.69,1.47a13.81,13.81,0,0,0-.74-12s-1.66.18-3.32,2.58c0,0-.18-3.87-1.85-5.53a4.69,4.69,0,0,0-1.66,2.21s.37-4.61-11.25-6.64c0,0,1.66,2.76,2.58,3.13,0,0-9.21-1.29-13.09-5.9,0,0,.19,3.87,2.77,5.16,0,0-3.87-5.53-15.67-2.76,0,0,6.64.74,9,3.69,0,0-7.56,2.77-14.56-.74,0,0,5.72,5.16,7.93,5.16A16.1,16.1,0,0,0,359,74.33a6.34,6.34,0,0,1,5-.18,10.57,10.57,0,0,1-8.85,3.69s3.5,3.13,7.19,1.84c0,0-2.4.55-2.4,6.08,0,0,1.11-2.21,2.77-2.4,0,0-3.18,2.08,0,7.31C362.63,90.67,396.95,103.83,406.72,96.63Z" transform="translate(-11.21 -19.2)"/><path class="cls-32" d="M359.14,161l-35.82,13.68a11.68,11.68,0,0,1-11.09-20.56l34.29-16.54a13.31,13.31,0,0,1,13,23.24Z" transform="translate(-11.21 -19.2)"/><path class="cls-32" d="M436.63,141.32l19.7,32.9A11.68,11.68,0,0,1,438,188.71l-22.26-30.9A13.31,13.31,0,0,1,436.38,141Z" transform="translate(-11.21 -19.2)"/><path class="cls-33" d="M301,159.4l21.64-54a10.72,10.72,0,0,1,20.63,5.84l-18.78,54.86a12.22,12.22,0,0,1-23.6-6.32Z" transform="translate(-11.21 -19.2)"/><path class="cls-33" d="M458.41,175l37.37,44.61a10.72,10.72,0,0,1-14.9,15.42l-39.47-42.49a12.21,12.21,0,0,1,16.72-17.8Z" transform="translate(-11.21 -19.2)"/><path class="cls-34" d="M328.06,112.56a.58.58,0,0,0,.15.31,11,11,0,0,0,10.14,3.36l3.18-.6a.57.57,0,0,0,.46-.68.58.58,0,0,0-.68-.46l-3.17.6a9.8,9.8,0,0,1-9.07-3,.59.59,0,0,0-.83,0A.6.6,0,0,0,328.06,112.56Z" transform="translate(-11.21 -19.2)"/><path class="cls-33" d="M343.31,100.95a2.93,2.93,0,0,1,4.13-.35h0a2.93,2.93,0,0,1,.35,4.13L342,111.65a2.93,2.93,0,0,1-4.13.35h0a2.94,2.94,0,0,1-.36-4.13Z" transform="translate(-11.21 -19.2)"/><rect class="cls-29" x="325.36" y="95.28" width="42.14" height="22.26" transform="translate(50.08 310.88) rotate(-55.19)"/><polygon class="cls-17" points="331.17 76.15 347.2 87.21 353.52 77.75 337.72 66.76 331.17 76.15"/><polygon class="cls-35" points="396.75 101.32 354.84 104.15 356.39 113.03 395.06 111.11 396.75 101.32"/><path class="cls-33" d="M344.49,252.31c.24,10,7.78,18,16.8,17.78l42.21-3.32c9-.23,16.16-8.54,15.92-18.6l16.21-99.22c-.25-10.05-7.78-18-16.81-17.78l-60.91,1.5c-9,.23-16.16,8.55-15.91,18.59Z" transform="translate(-11.21 -19.2)"/><path class="cls-32" d="M343,255.56c.25,10.38,8,18.6,17.36,18.37L404,270.5c9.34-.23,16.7-8.82,16.45-19.21l16.74-102.53c-.26-10.38-8-18.61-17.37-18.37l-62.94,1.55c-9.33.23-16.7,8.83-16.45,19.21Z" transform="translate(-11.21 -19.2)"/><polygon class="cls-33" points="356.39 113.03 356.98 110.94 361.68 94.44 388.63 82.09 392.99 109.35 393.53 112.72 356.39 113.03"/><path class="cls-4" d="M404,127.38a22.9,22.9,0,0,1-11.52,3.41l-3.3.08a22.07,22.07,0,0,1-18.65-9.05l2.33-8.18,26.95-12.35Z" transform="translate(-11.21 -19.2)"/><path class="cls-33" d="M363,105.07c.28,11,9.49,23.73,20.51,23.46h0c11-.27,22.66-13.51,22.39-24.52l-.36-14.4C405.71,72.07,396,64.2,385,64.47l-3,.07c-11,.27-19.59,8.22-19.3,26.13Z" transform="translate(-11.21 -19.2)"/><path class="cls-33" d="M403.18,97.71c-1,3.3-.23,6.51,1.81,7.15s4.54-1.52,5.58-4.82.22-6.51-1.83-7.15S404.22,94.4,403.18,97.71Z" transform="translate(-11.21 -19.2)"/><path class="cls-33" d="M360.77,98.88c1.61,3.07,4.45,4.76,6.34,3.77s2.13-4.28.53-7.35-4.45-4.76-6.35-3.77S359.17,95.81,360.77,98.88Z" transform="translate(-11.21 -19.2)"/><path class="cls-36" d="M377.31,455.52l.12,13.91-49.58.41s3-7.89,10.2-8.56l16.88-6.79Z" transform="translate(-11.21 -19.2)"/><path class="cls-36" d="M399.17,455.33l.11,13.91,49.59-.41s-3.09-7.84-10.35-8.39l-17-6.51Z" transform="translate(-11.21 -19.2)"/><polygon class="cls-37" points="410.99 229.9 416.82 439.97 388.32 440.2 367.46 276.85 368.8 438.86 338.65 438.11 331.38 233.19 410.99 229.9"/><polygon class="cls-33" points="393.53 112.72 366.95 129.47 356.39 113.03 393.53 112.72"/><polygon class="cls-32" points="387 125.21 382.29 114.23 396.75 101.32 397.9 111.26 387 125.21"/><polygon class="cls-32" points="361.04 124.01 363.8 112.97 354.84 104.15 354.21 114.11 361.04 124.01"/><polygon class="cls-36" points="365.8 231.36 366.91 130.31 365.85 130.3 364.73 231.34 365.8 231.36"/><path class="cls-38" d="M378.73,296.57a6.32,6.32,0,0,0,4.64-2.36,6.06,6.06,0,0,0,.94-4.41l-.17-21.94h-1.07l.18,22a5.14,5.14,0,0,1-.75,3.68,5.28,5.28,0,0,1-3.89,1.92Z" transform="translate(-11.21 -19.2)"/><path class="cls-33" d="M344.06,104.4A2.68,2.68,0,0,0,347,102h0a2.68,2.68,0,0,0-2.41-2.92l-11.82-1.2a2.67,2.67,0,0,0-2.92,2.41h0a2.67,2.67,0,0,0,2.42,2.92Z" transform="translate(-11.21 -19.2)"/><path class="cls-33" d="M341.68,110.94a2.68,2.68,0,0,0,3.6-1.2h0a2.69,2.69,0,0,0-1.19-3.6l-10.6-5.38a2.68,2.68,0,0,0-3.6,1.19h0a2.67,2.67,0,0,0,1.2,3.6Z" transform="translate(-11.21 -19.2)"/><path class="cls-33" d="M337.41,116.7a2.68,2.68,0,0,0,3.6-1.2h0a2.68,2.68,0,0,0-1.2-3.6l-10.59-5.39a2.67,2.67,0,0,0-3.59,1.19h0a2.67,2.67,0,0,0,1.2,3.6Z" transform="translate(-11.21 -19.2)"/><path class="cls-33" d="M331.72,121.45a2.68,2.68,0,0,0,3.6-1.2h0a2.68,2.68,0,0,0-1.19-3.6l-10.6-5.39a2.67,2.67,0,0,0-3.59,1.19h0a2.67,2.67,0,0,0,1.2,3.6Z" transform="translate(-11.21 -19.2)"/><polygon class="cls-37" points="410.99 110.44 403.25 169.06 421.5 174.04 410.99 236.54 331.9 238.75 328.03 174.04 339.65 170.17 341.31 112.65 350.71 112.1 348.5 169.06 393.29 167.96 400.48 110.44 410.99 110.44"/><path class="cls-39" d="M404.51,201.53H358.42s.15,4,.37,8.48a57.21,57.21,0,0,0,.37,7.37c.74,3.87,4.29,7.37,13,7.37h18s13.83.55,13.83-10.51Z" transform="translate(-11.21 -19.2)"/><circle class="cls-40" cx="398.27" cy="175.15" r="3.46"/><circle class="cls-40" cx="345.18" cy="175.15" r="3.46"/><path class="cls-4" d="M406,93.13a17.9,17.9,0,0,1-3.87,8.66,31.75,31.75,0,0,1,1.47-15.49s0,1.11-4.43,2.4a7.4,7.4,0,0,1,.19-6.64s-5,5.9-16.41,6.27c0,0,1.11-5.9,3.32-7.37A24.73,24.73,0,0,1,374.82,87s1.66-6.63,3.14-7.37c0,0-6.27,5.16-8.85,9.22a28.87,28.87,0,0,1-.92-8.85s-.73,6.64-3.5,9c0,0,1.81,4.42-.48,8a31.6,31.6,0,0,1-1.55-5.62s-2.76-26.55,20.28-28c0,0,20.65-1.84,22.68,18.81C405.61,82.26,406.53,88.89,406,93.13Z" transform="translate(-11.21 -19.2)"/><path class="cls-4" d="M394.83,100.32a1.1,1.1,0,0,0,1-1.66,6.44,6.44,0,0,0-4.25-3c-1.75-.23-3.52.52-5.23,2.24a1.11,1.11,0,0,0,1.56,1.57c1.21-1.21,2.34-1.74,3.38-1.61a4.25,4.25,0,0,1,2.62,1.93A1.11,1.11,0,0,0,394.83,100.32Z" transform="translate(-11.21 -19.2)"/><path class="cls-4" d="M375.47,99.77a1.09,1.09,0,0,0,.55-.15,1.11,1.11,0,0,0,.4-1.51,6.45,6.45,0,0,0-4.25-3c-1.76-.23-3.51.52-5.23,2.24a1.11,1.11,0,1,0,1.57,1.56c1.2-1.21,2.34-1.74,3.38-1.61a4.27,4.27,0,0,1,2.62,1.94A1.11,1.11,0,0,0,375.47,99.77Z" transform="translate(-11.21 -19.2)"/><path class="cls-17" d="M372.71,112.21l18-1.38s-.55,5-8.3,5.53C382.38,116.36,375.75,117.19,372.71,112.21Z" transform="translate(-11.21 -19.2)"/><rect class="cls-15" x="425.37" y="320.37" width="147.48" height="131.6"/><rect class="cls-16" x="425.37" y="320.37" width="45.38" height="131.6"/><rect class="cls-17" x="503.28" y="327.93" width="66.56" height="30.25"/><path class="cls-18" d="M492.17,433.74a2.27,2.27,0,0,0,2.27,2.27h36.3a2.27,2.27,0,0,0,2.27-2.27h0a2.27,2.27,0,0,0-2.27-2.27h-36.3a2.27,2.27,0,0,0-2.27,2.27Z" transform="translate(-11.21 -19.2)"/><path class="cls-18" d="M492.17,440.54a2.26,2.26,0,0,0,2.27,2.27h36.3a2.26,2.26,0,0,0,2.27-2.27h0a2.27,2.27,0,0,0-2.27-2.27h-36.3a2.27,2.27,0,0,0-2.27,2.27Z" transform="translate(-11.21 -19.2)"/><path class="cls-18" d="M492.17,447.35a2.26,2.26,0,0,0,2.27,2.27h36.3a2.26,2.26,0,0,0,2.27-2.27h0a2.27,2.27,0,0,0-2.27-2.27h-36.3a2.27,2.27,0,0,0-2.27,2.27Z" transform="translate(-11.21 -19.2)"/><path class="cls-18" d="M492.17,454.16a2.27,2.27,0,0,0,2.27,2.27h36.3a2.27,2.27,0,0,0,2.27-2.27h0a2.26,2.26,0,0,0-2.27-2.27h-36.3a2.26,2.26,0,0,0-2.27,2.27Z" transform="translate(-11.21 -19.2)"/><rect class="cls-15" x="431.74" y="218.29" width="116.8" height="104.22"/><rect class="cls-16" x="431.74" y="218.29" width="35.94" height="104.22"/><rect class="cls-17" x="493.44" y="224.27" width="52.71" height="23.96"/><path class="cls-18" d="M487,312.06a1.79,1.79,0,0,0,1.8,1.8h28.75a1.8,1.8,0,0,0,1.8-1.8h0a1.8,1.8,0,0,0-1.8-1.8H488.77a1.79,1.79,0,0,0-1.8,1.8Z" transform="translate(-11.21 -19.2)"/><path class="cls-18" d="M487,317.45a1.8,1.8,0,0,0,1.8,1.8h28.75a1.8,1.8,0,0,0,1.8-1.8h0a1.8,1.8,0,0,0-1.8-1.8H488.77a1.79,1.79,0,0,0-1.8,1.8Z" transform="translate(-11.21 -19.2)"/><path class="cls-18" d="M487,322.84a1.8,1.8,0,0,0,1.8,1.8h28.75a1.8,1.8,0,0,0,1.8-1.8h0a1.8,1.8,0,0,0-1.8-1.79H488.77a1.8,1.8,0,0,0-1.8,1.79Z" transform="translate(-11.21 -19.2)"/><path class="cls-18" d="M487,328.23a1.8,1.8,0,0,0,1.8,1.8h28.75a1.8,1.8,0,0,0,1.8-1.8h0a1.8,1.8,0,0,0-1.8-1.8H488.77a1.8,1.8,0,0,0-1.8,1.8Z" transform="translate(-11.21 -19.2)"/><path class="cls-33" d="M478.62,228.63a10,10,0,0,0,10,10h9.07a10,10,0,0,0,10-10h0a10,10,0,0,0-10-10h-9.07a10,10,0,0,0-10,10Z" transform="translate(-11.21 -19.2)"/><path class="cls-33" d="M514,243.2a2.86,2.86,0,0,0,.59-.06,2.77,2.77,0,0,0,2.12-3.29c-.84-3.87-5.16-10.58-15.45-8.39a2.77,2.77,0,0,0,1.16,5.41c7.42-1.6,8.76,3.56,8.89,4.15A2.77,2.77,0,0,0,514,243.2Z" transform="translate(-11.21 -19.2)"/><path class="cls-33" d="M500.1,245.67a2.84,2.84,0,0,0,.59,0,2.76,2.76,0,0,0,2.25-3.2c-.67-3.9-4.7-10.79-15.08-9a2.77,2.77,0,1,0,.92,5.45c7.48-1.28,8.6,3.94,8.7,4.53A2.77,2.77,0,0,0,500.1,245.67Z" transform="translate(-11.21 -19.2)"/><path class="cls-33" d="M519.91,238a2.77,2.77,0,0,0,2.06-4.61,21.32,21.32,0,0,0-19.6-6,2.77,2.77,0,0,0,1.16,5.41,15.77,15.77,0,0,1,14.33,4.3A2.74,2.74,0,0,0,519.91,238Z" transform="translate(-11.21 -19.2)"/><path class="cls-33" d="M518.44,232.5a2.74,2.74,0,0,0,1.85-.71,2.77,2.77,0,0,0,.21-3.9,21.31,21.31,0,0,0-19.6-6,2.77,2.77,0,0,0,1.16,5.41,15.76,15.76,0,0,1,14.33,4.31A2.75,2.75,0,0,0,518.44,232.5Z" transform="translate(-11.21 -19.2)"/><path class="cls-33" d="M514.84,229.19a2.76,2.76,0,0,0,2.05-4.61,21.34,21.34,0,0,0-19.6-6,2.77,2.77,0,0,0,1.16,5.41,15.76,15.76,0,0,1,14.33,4.31A2.77,2.77,0,0,0,514.84,229.19Z" transform="translate(-11.21 -19.2)"/><path class="cls-41" d="M511.66,233.11l.3-.47c-2.9-1.86-6.51-2.35-10.75-1.45l.12.54C505.41,230.86,508.88,231.32,511.66,233.11Z" transform="translate(-11.21 -19.2)"/><path class="cls-41" d="M519.34,231.48l.33-.44a21.33,21.33,0,0,0-17.36-3.89l.12.54A20.82,20.82,0,0,1,519.34,231.48Z" transform="translate(-11.21 -19.2)"/><path class="cls-41" d="M515.41,224.35l.27-.48A21,21,0,0,0,502,221.39l.09.55A20.43,20.43,0,0,1,515.41,224.35Z" transform="translate(-11.21 -19.2)"/><ellipse class="cls-29" cx="242.56" cy="53.67" rx="13.1" ry="5.91"/><ellipse class="cls-17" cx="242.56" cy="52.65" rx="7.4" ry="3.34"/><path class="cls-42" d="M253.42,19.2a18,18,0,0,0-18,18c0,10,18,33,18,33s18-23,18-33A18,18,0,0,0,253.42,19.2Zm0,27.29a9.78,9.78,0,1,1,9.78-9.78A9.78,9.78,0,0,1,253.42,46.49Z" transform="translate(-11.21 -19.2)"/><path class="cls-43" d="M256.85,19.53v8a9.77,9.77,0,0,1-.25,18.4,7.2,7.2,0,0,1-7,5.35h-9a176.8,176.8,0,0,0,12.73,18.88s18-23,18-33A18,18,0,0,0,256.85,19.53Z" transform="translate(-11.21 -19.2)"/><path class="cls-44" d="M253.42,48.55a11.76,11.76,0,1,1,11.76-11.76A11.77,11.77,0,0,1,253.42,48.55Zm0-21.46a9.7,9.7,0,1,0,9.7,9.7A9.71,9.71,0,0,0,253.42,27.09Z" transform="translate(-11.21 -19.2)"/><path class="cls-45" d="M253.42,48.55a11.75,11.75,0,0,1-4.15-.76l.73-1.93a9.66,9.66,0,0,0,3.42.62h0A9.64,9.64,0,0,0,259,44.76l1.17,1.69a11.69,11.69,0,0,1-6.7,2.1Z" transform="translate(-11.21 -19.2)"/><path class="cls-46" d="M259.54,46.64a1,1,0,0,1-.59-1.88,9.71,9.71,0,0,0,4.17-8,9.61,9.61,0,0,0-.79-3.84,1,1,0,1,1,1.89-.82,11.64,11.64,0,0,1,1,4.66,11.77,11.77,0,0,1-5.06,9.66A1,1,0,0,1,259.54,46.64Z" transform="translate(-11.21 -19.2)"/><path class="cls-46" d="M243.62,42.19a1,1,0,0,1-.94-.61,11.76,11.76,0,0,1,10-16.53,1,1,0,0,1,.12,2.06,9.71,9.71,0,0,0-8.28,13.63,1,1,0,0,1-.94,1.45Z" transform="translate(-11.21 -19.2)"/><path class="cls-47" d="M238.66,30.41a1,1,0,0,1-.47-.12,1,1,0,0,1-.44-1.39,18,18,0,0,1,9.81-8.68,1,1,0,0,1,.71,1.93,16,16,0,0,0-8.69,7.69A1,1,0,0,1,238.66,30.41Z" transform="translate(-11.21 -19.2)"/><text class="cls-48" transform="translate(60.25 383.8)">RapidDelivery</text></g></g></svg>